<svg width="52" height="11" viewBox="0 0 52 11" fill="none" xmlns="http://www.w3.org/2000/svg">
<path d="M0.987696 10V0.757812H4.15518C5.20042 0.757812 5.996 0.967285 6.54189 1.38623C7.08779 1.80518 7.36074 2.42936 7.36074 3.25879C7.36074 3.68197 7.24648 4.06283 7.01797 4.40137C6.78945 4.73991 6.45514 5.00228 6.01504 5.18848C6.51439 5.32389 6.89948 5.57992 7.17031 5.95654C7.44538 6.32894 7.58291 6.77751 7.58291 7.30225C7.58291 8.16976 7.30361 8.83626 6.74502 9.30176C6.19066 9.76725 5.39509 10 4.3583 10H0.987696ZM2.59365 5.82959V8.71777H4.37734C4.88092 8.71777 5.27448 8.59294 5.55801 8.34326C5.84154 8.09359 5.9833 7.74658 5.9833 7.30225C5.9833 6.34163 5.49242 5.85075 4.51064 5.82959H2.59365ZM2.59365 4.64893H4.16787C4.66722 4.64893 5.05654 4.53678 5.33584 4.3125C5.61937 4.08398 5.76113 3.76237 5.76113 3.34766C5.76113 2.89062 5.62995 2.56055 5.36758 2.35742C5.10944 2.1543 4.70531 2.05273 4.15518 2.05273H2.59365V4.64893ZM16.4091 0.757812V6.93408C16.4091 7.91585 16.0939 8.6945 15.4633 9.27002C14.837 9.84131 14.0012 10.127 12.956 10.127C11.8981 10.127 11.058 9.84554 10.436 9.28271C9.81391 8.71566 9.50287 7.93066 9.50287 6.92773V0.757812H11.1025V6.94043C11.1025 7.55827 11.2591 8.03011 11.5722 8.35596C11.8854 8.6818 12.3466 8.84473 12.956 8.84473C14.1917 8.84473 14.8095 8.19303 14.8095 6.88965V0.757812H16.4091ZM25.2671 2.05273H22.3852V10H20.792V2.05273H17.9355V0.757812H25.2671V2.05273ZM33.7251 2.05273H30.8433V10H29.25V2.05273H26.3936V0.757812H33.7251V2.05273ZM42.6021 5.62012C42.6021 6.52572 42.4455 7.32129 42.1324 8.00684C41.8192 8.68815 41.3707 9.21289 40.7867 9.58105C40.2069 9.94499 39.5383 10.127 38.7808 10.127C38.0318 10.127 37.3632 9.94499 36.775 9.58105C36.191 9.21289 35.7382 8.69027 35.4166 8.01318C35.0992 7.3361 34.9384 6.55534 34.9341 5.6709V5.15039C34.9341 4.24902 35.0928 3.45345 35.4102 2.76367C35.7318 2.07389 36.1825 1.54704 36.7623 1.18311C37.3463 0.814941 38.0149 0.630859 38.7681 0.630859C39.5214 0.630859 40.1879 0.812826 40.7676 1.17676C41.3516 1.53646 41.8023 2.05697 42.1197 2.73828C42.4371 3.41536 42.5979 4.20459 42.6021 5.10596V5.62012ZM40.9962 5.1377C40.9962 4.11361 40.8015 3.32861 40.4122 2.78271C40.0271 2.23682 39.4791 1.96387 38.7681 1.96387C38.0741 1.96387 37.5303 2.23682 37.1368 2.78271C36.7475 3.32438 36.5486 4.09245 36.5401 5.08691V5.62012C36.5401 6.63574 36.7369 7.42074 37.1304 7.9751C37.5282 8.52946 38.0783 8.80664 38.7808 8.80664C39.4918 8.80664 40.0377 8.53581 40.4185 7.99414C40.8036 7.45247 40.9962 6.66113 40.9962 5.62012V5.1377ZM51.9933 10H50.3873L46.2677 3.44287V10H44.6617V0.757812H46.2677L50.4 7.34033V0.757812H51.9933V10Z" fill="black" fill-opacity="0.54"/>
</svg>
