<svg width="20" height="20" viewBox="0 0 20 20" fill="none" xmlns="http://www.w3.org/2000/svg">
<path d="M9.08331 12.7507H10.9166V14.584H9.08331V12.7507ZM9.08331 5.41732H10.9166V10.9173H9.08331V5.41732ZM9.99081 0.833984C4.93081 0.833984 0.833313 4.94065 0.833313 10.0007C0.833313 15.0607 4.93081 19.1673 9.99081 19.1673C15.06 19.1673 19.1666 15.0607 19.1666 10.0007C19.1666 4.94065 15.06 0.833984 9.99081 0.833984ZM9.99998 17.334C5.94831 17.334 2.66665 14.0523 2.66665 10.0007C2.66665 5.94898 5.94831 2.66732 9.99998 2.66732C14.0516 2.66732 17.3333 5.94898 17.3333 10.0007C17.3333 14.0523 14.0516 17.334 9.99998 17.334Z" fill="#F44336"/>
</svg>
