<svg class="svg-icon" style="width: 1em; height: 1em;vertical-align: middle;fill: currentColor;overflow: hidden;" viewBox="0 0 1024 1024" version="1.1" xmlns="http://www.w3.org/2000/svg"><path d="M512 298.666667a42.666667 42.666667 0 0 0-42.666667 42.666666v170.666667a42.666667 42.666667 0 0 0 85.333334 0V341.333333a42.666667 42.666667 0 0 0-42.666667-42.666666z m39.253333 367.786666a32.426667 32.426667 0 0 0-3.84-7.68l-5.12-6.4a42.666667 42.666667 0 0 0-46.506666-8.96 49.066667 49.066667 0 0 0-14.08 8.96A42.666667 42.666667 0 0 0 469.333333 682.666667a42.666667 42.666667 0 0 0 3.413334 16.213333 38.4 38.4 0 0 0 23.04 23.04 40.106667 40.106667 0 0 0 32.426666 0 38.4 38.4 0 0 0 23.04-23.04A42.666667 42.666667 0 0 0 554.666667 682.666667a58.026667 58.026667 0 0 0 0-8.533334 27.306667 27.306667 0 0 0-3.413334-7.68zM512 85.333333a426.666667 426.666667 0 1 0 426.666667 426.666667A426.666667 426.666667 0 0 0 512 85.333333z m0 768a341.333333 341.333333 0 1 1 341.333333-341.333333 341.333333 341.333333 0 0 1-341.333333 341.333333z"  /></svg>