<svg width="20" height="20" viewBox="0 0 20 20" fill="none" xmlns="http://www.w3.org/2000/svg">
<path d="M9.08337 5.41732H10.9167V7.25065H9.08337V5.41732ZM9.08337 9.08398H10.9167V14.584H9.08337V9.08398ZM10 0.833984C4.94004 0.833984 0.833374 4.94065 0.833374 10.0007C0.833374 15.0607 4.94004 19.1673 10 19.1673C15.06 19.1673 19.1667 15.0607 19.1667 10.0007C19.1667 4.94065 15.06 0.833984 10 0.833984ZM10 17.334C5.95754 17.334 2.66671 14.0432 2.66671 10.0007C2.66671 5.95815 5.95754 2.66732 10 2.66732C14.0425 2.66732 17.3334 5.95815 17.3334 10.0007C17.3334 14.0432 14.0425 17.334 10 17.334Z" fill="white"/>
</svg>
