<svg xmlns="http://www.w3.org/2000/svg" xmlns:xlink="http://www.w3.org/1999/xlink" version="1.1" width="751" height="751" viewBox="0 0 751 751" xml:space="preserve">
<desc>Created with Fabric.js 3.5.0</desc>
<defs>
</defs>
<rect x="0" y="0" width="100%" height="100%" fill="rgba(255,255,255,0)"/>
<g transform="matrix(37.55 0 0 37.55 375.5 375.5)" id="731838">
<path style="stroke: none; stroke-width: 1; stroke-dasharray: none; stroke-linecap: butt; stroke-dashoffset: 0; stroke-linejoin: miter; stroke-miterlimit: 4; is-custom-font: none; font-file-url: none; fill: rgb(57,181,74); fill-rule: evenodd; opacity: 1;" vector-effect="non-scaling-stroke" transform=" translate(-10, -10)" d="M 5.9 8.1 L 4.5 9.5 L 9 14 L 19 4 L 17.6 2.6 L 9 11.2 L 5.9 8.1 L 5.9 8.1 Z M 18 10 C 18 14.4 14.4 18 10 18 C 5.6 18 2 14.4 2 10 C 2 5.6 5.6 2 10 2 C 10.8 2 11.5 2.1 12.2 2.3 L 13.8 0.7 C 12.6 0.3 11.3 0 10 0 C 4.5 0 0 4.5 0 10 C 0 15.5 4.5 20 10 20 C 15.5 20 20 15.5 20 10 L 18 10 L 18 10 Z" stroke-linecap="round"/>
</g>
</svg>