<?xml version="1.0" standalone="no"?>
<!DOCTYPE svg PUBLIC "-//W3C//DTD SVG 20010904//EN"
 "http://www.w3.org/TR/2001/REC-SVG-20010904/DTD/svg10.dtd">
<svg version="1.0" xmlns="http://www.w3.org/2000/svg"
 width="512.000000pt" height="512.000000pt" viewBox="0 0 512.000000 512.000000"
 preserveAspectRatio="xMidYMid meet">

<g transform="translate(0.000000,512.000000) scale(0.100000,-0.100000)"
fill="#000000" stroke="none">
<path d="M1965 4804 c-390 -56 -661 -173 -945 -409 -294 -246 -517 -635 -584
-1025 -23 -133 -31 -344 -17 -469 25 -230 76 -404 177 -606 234 -469 675 -813
1186 -924 447 -97 936 -8 1312 239 l79 52 671 -671 671 -671 143 143 142 142
-665 665 -664 664 24 31 c55 67 169 243 207 319 247 492 250 1073 7 1559 -244
489 -691 831 -1224 937 -85 17 -154 23 -300 25 -104 2 -203 1 -220 -1z m333
-204 c194 -21 358 -67 527 -150 692 -338 1024 -1132 780 -1866 -171 -514 -598
-894 -1143 -1017 -84 -19 -127 -22 -312 -21 -182 0 -229 3 -310 21 -310 70
-548 200 -771 422 -274 275 -422 595 -448 971 -39 566 218 1085 693 1398 209
138 430 213 721 246 64 7 174 5 263 -4z"/>
</g>
</svg>
